<?xml version="1.0" standalone="no"?>
<!DOCTYPE svg PUBLIC "-//W3C//DTD SVG 20010904//EN"
 "http://www.w3.org/TR/2001/REC-SVG-20010904/DTD/svg10.dtd">
<svg version="1.0" xmlns="http://www.w3.org/2000/svg"
 width="1024.000000pt" height="1024.000000pt" viewBox="0 0 1024.000000 1024.000000"
 preserveAspectRatio="xMidYMid meet">

<g transform="translate(0.000000,1024.000000) scale(0.100000,-0.100000)"
fill="#000000" stroke="none">
<path d="M5035 9900 c-100 -7 -205 -39 -244 -74 -25 -23 -64 -35 -169 -50 -53
-8 -115 -22 -137 -31 -51 -22 -150 -92 -195 -140 -19 -20 -53 -46 -75 -57 -83
-43 -226 -161 -285 -235 -23 -29 -46 -53 -51 -53 -32 0 -209 -313 -279 -494
-58 -149 -70 -198 -70 -296 0 -90 14 -155 48 -233 16 -36 20 -59 16 -91 -5
-36 -3 -47 14 -64 20 -20 21 -62 2 -62 -19 0 -75 -69 -97 -119 -84 -188 -120
-512 -93 -833 9 -114 18 -156 74 -342 28 -97 32 -137 15 -165 -11 -16 -5 -80
6 -69 13 13 27 138 40 353 24 394 45 590 69 647 9 21 16 60 16 87 0 31 6 55
15 65 8 8 15 21 15 28 0 7 6 22 14 33 7 11 17 36 21 55 4 19 18 48 31 63 13
15 26 44 30 65 4 20 17 53 30 72 12 19 27 53 33 76 8 30 34 64 101 135 57 59
100 113 115 146 26 58 98 141 133 154 12 5 26 17 30 28 4 10 21 30 39 45 26
22 36 25 52 17 29 -16 32 -14 26 19 -4 22 0 34 17 50 12 11 27 20 33 20 7 0
22 9 35 20 28 24 33 24 69 5 25 -12 31 -12 47 0 11 8 31 15 46 15 14 0 73 10
130 21 57 12 123 25 148 29 25 4 70 15 100 23 128 37 194 34 204 -8 3 -14 18
-32 31 -41 22 -15 36 -15 118 -5 84 11 98 10 162 -9 38 -11 85 -20 104 -20 19
0 42 -7 51 -15 14 -13 115 -42 247 -70 12 -3 25 -17 31 -35 6 -16 18 -30 26
-30 17 0 76 -59 76 -77 0 -18 79 -81 112 -88 42 -10 112 -59 126 -89 6 -15 17
-26 24 -26 7 0 20 -5 28 -10 13 -9 12 -13 -8 -28 l-23 -18 27 -55 c26 -53 68
-91 106 -95 9 0 23 -4 32 -7 9 -4 19 1 25 11 18 32 24 3 6 -33 -28 -60 5 -121
35 -65 9 18 40 29 40 15 0 -25 -33 -63 -60 -68 -24 -5 -32 -13 -37 -37 -6 -30
-7 -31 -49 -24 -43 6 -44 6 -44 -23 0 -16 -6 -37 -13 -47 -9 -12 -11 -32 -8
-54 5 -30 11 -37 37 -44 22 -5 33 -15 36 -32 5 -27 -6 -44 -46 -70 -28 -18
-29 -19 -10 -33 12 -9 33 -13 55 -10 43 6 54 0 63 -31 9 -28 -2 -82 -16 -82
-6 0 -25 13 -43 28 -30 27 -39 29 -152 36 -66 3 -155 13 -199 21 -43 9 -90 13
-104 10 -14 -3 -56 -7 -95 -9 -41 -3 -98 -15 -138 -30 -46 -18 -87 -26 -130
-26 -73 0 -153 -33 -180 -74 -11 -17 -26 -26 -43 -26 -55 0 -81 -33 -116 -145
-20 -65 -19 -67 36 -100 25 -15 23 -82 -4 -135 -24 -46 -27 -87 -15 -160 13
-77 61 -149 98 -150 10 0 39 -11 65 -24 26 -13 59 -26 74 -30 15 -3 29 -15 33
-25 7 -23 25 -32 90 -42 28 -4 70 -12 95 -19 53 -14 117 -6 143 18 15 13 20
14 27 3 10 -17 313 -17 318 0 3 6 8 6 17 -1 11 -9 89 -31 188 -54 17 -4 31
-16 37 -32 5 -13 17 -27 26 -31 23 -9 83 23 93 49 9 25 3 87 -9 103 -19 23
-21 84 -6 135 9 30 16 73 16 96 0 60 40 108 84 101 17 -3 39 -8 48 -12 13 -5
21 0 29 19 17 37 26 32 34 -16 4 -24 14 -50 21 -59 9 -10 19 -61 27 -134 10
-107 10 -118 -6 -130 -21 -15 -22 -31 -2 -39 10 -4 15 -19 15 -49 0 -51 -8
-63 -27 -39 -11 15 -13 10 -11 -38 2 -41 7 -55 18 -55 20 0 25 -32 10 -60 -10
-18 -10 -48 -1 -137 16 -155 8 -285 -19 -312 l-20 -20 0 67 c0 37 -4 67 -9 67
-17 0 -20 -30 -14 -110 5 -68 3 -83 -11 -99 -10 -11 -42 -72 -71 -136 -30 -65
-56 -119 -57 -120 -2 -2 -20 -10 -40 -18 -30 -13 -38 -21 -38 -42 0 -18 -14
-40 -40 -66 -22 -22 -40 -44 -40 -49 0 -5 -19 -18 -42 -28 -24 -10 -60 -38
-80 -60 -21 -23 -46 -42 -55 -42 -10 0 -41 -24 -69 -52 -28 -29 -65 -63 -81
-75 -18 -14 -40 -46 -54 -78 -24 -59 -38 -66 -69 -35 -16 16 -33 20 -84 20
-62 0 -66 -1 -91 -34 -21 -28 -24 -38 -16 -55 6 -11 22 -21 36 -23 33 -4 33
-22 0 -26 -13 -2 -39 -17 -56 -35 -27 -26 -30 -35 -23 -56 7 -20 20 -29 56
-38 26 -6 51 -14 56 -17 5 -3 17 3 27 14 24 26 50 25 69 -2 22 -31 21 -35 -21
-49 -21 -7 -44 -20 -51 -30 -9 -13 -21 -16 -47 -12 -32 5 -38 1 -88 -51 l-53
-57 -60 2 c-32 1 -72 -4 -87 -10 -55 -22 -94 -14 -123 24 -35 46 -59 51 -118
24 l-49 -21 -33 36 c-27 30 -40 36 -73 36 -30 0 -44 6 -55 22 -18 26 -20 25
-32 -26 -5 -22 -15 -42 -23 -44 -11 -4 -13 5 -9 41 6 52 -6 71 -44 65 -20 -3
-23 -10 -26 -48 -4 -71 -6 -73 -48 -55 -58 24 -78 20 -97 -20 -14 -29 -22 -35
-48 -35 -18 0 -48 -12 -74 -31 -40 -28 -47 -30 -76 -20 -43 15 -46 14 -69 -9
l-21 -21 -17 21 -17 21 -45 -20 c-67 -31 -113 -28 -142 9 -27 35 -125 100
-149 100 -10 0 -21 -13 -28 -30 -14 -41 -44 -39 -70 5 -14 24 -30 37 -52 42
-20 4 -34 14 -40 30 -5 14 -16 31 -24 39 -19 20 -19 43 1 65 23 25 9 63 -20
55 -31 -8 -66 19 -66 50 0 14 -12 37 -28 52 -15 15 -33 39 -40 54 -6 16 -16
28 -22 28 -18 0 -11 -39 10 -52 13 -8 20 -24 20 -43 0 -17 4 -35 9 -40 5 -6
16 -28 24 -50 77 -209 100 -263 116 -275 4 -3 13 -20 20 -38 9 -21 33 -46 67
-68 30 -20 62 -49 71 -65 9 -16 36 -42 59 -59 42 -30 61 -61 49 -80 -3 -6 4
-10 18 -10 34 0 73 -34 80 -68 12 -60 101 -132 162 -132 18 0 29 -8 37 -26 16
-36 77 -64 136 -64 35 0 57 -6 76 -21 19 -15 44 -22 82 -24 38 -2 65 -10 91
-27 32 -22 54 -27 138 -32 55 -4 140 -13 189 -22 80 -14 90 -13 105 0 21 19
46 20 107 5 36 -9 55 -8 102 5 32 9 74 16 94 16 47 0 113 24 149 55 17 13 49
30 72 37 23 6 69 29 101 50 33 21 66 38 74 38 16 0 125 107 135 133 4 11 17
17 35 17 37 0 47 12 64 77 11 42 26 65 88 130 94 97 97 101 74 118 -16 11 -17
16 -4 41 l14 29 4 -28 c3 -28 35 -53 52 -42 6 3 10 20 10 36 0 57 21 119 40
119 12 0 20 11 24 35 4 20 4 39 1 44 -3 5 4 33 14 63 11 29 29 85 41 124 15
52 33 85 67 125 49 57 89 132 99 186 4 22 21 44 50 68 42 34 43 38 29 58 -17
24 -20 83 -5 92 5 3 24 -2 42 -11 32 -16 32 -16 55 12 32 41 29 60 -11 74 -43
14 -61 59 -53 133 4 44 10 55 48 88 24 21 49 39 55 39 6 0 18 16 27 35 15 33
16 39 2 65 -14 27 -19 29 -50 24 -34 -5 -35 -5 -35 30 0 40 33 136 51 147 9 5
5 30 -16 96 -24 76 -27 98 -21 167 5 77 18 110 40 103 6 -2 22 4 35 14 33 26
44 24 37 -7 -5 -17 -2 -32 7 -43 8 -9 17 -28 21 -43 8 -36 15 -35 49 9 28 38
38 105 16 118 -6 4 -10 43 -9 98 1 57 -3 104 -11 125 -12 28 -11 39 4 83 42
117 43 343 5 774 -6 72 -10 166 -9 210 4 108 4 125 -1 395 -4 189 -10 254 -27
334 -11 54 -21 110 -21 124 0 14 -6 53 -14 86 -8 34 -22 97 -31 141 -25 111
-61 183 -202 394 -24 35 -48 82 -55 105 -6 22 -21 54 -32 71 -12 16 -29 46
-38 67 -14 31 -28 43 -84 68 -77 35 -142 80 -235 162 -72 63 -122 86 -304 140
-79 23 -131 31 -250 38 -202 12 -362 36 -447 69 -36 14 -246 20 -373 11z
m1490 -2201 c10 -15 -1 -23 -20 -15 -9 3 -13 10 -10 16 8 13 22 13 30 -1z
m-352 -521 c12 -6 41 -10 64 -9 38 2 44 -1 52 -23 8 -20 18 -25 53 -28 35 -2
43 -7 43 -23 0 -17 -8 -20 -51 -23 -45 -3 -53 0 -67 21 -13 20 -27 25 -84 31
-38 4 -77 4 -86 0 -20 -7 -23 -40 -4 -47 6 -3 -1 -6 -16 -6 -53 -2 -165 -32
-171 -47 -6 -16 -72 -19 -96 -4 -13 8 -13 10 0 14 8 3 33 7 55 8 32 2 40 7 40
23 0 16 -8 21 -35 23 -19 1 -42 5 -50 8 -32 11 22 26 71 20 53 -7 149 2 149
14 0 4 -28 13 -62 21 l-63 13 50 12 c66 16 181 17 208 2z m296 -134 c25 -31
27 -54 6 -54 -8 0 -15 4 -15 9 0 5 -11 12 -25 15 -18 5 -25 13 -25 31 0 34 32
33 59 -1z m-703 -259 c17 -26 16 -66 -3 -72 -7 -3 -32 14 -55 36 l-43 41 23
20 c27 23 52 15 78 -25z m354 -65 c0 -5 -5 -10 -11 -10 -5 0 -7 5 -4 10 3 6 8
10 11 10 2 0 4 -4 4 -10z m-151 -1819 c20 -13 -26 -73 -53 -69 -18 3 -32 50
-20 70 7 11 55 10 73 -1z m446 -520 c7 -12 -12 -24 -25 -16 -11 7 -4 25 10 25
5 0 11 -4 15 -9z"/>
<path d="M4415 8629 c-8 -12 14 -31 30 -26 6 2 10 10 10 18 0 17 -31 24 -40 8z"/>
<path d="M6187 8244 c-13 -13 -7 -24 14 -24 11 0 19 5 17 12 -5 14 -22 21 -31
12z"/>
<path d="M6185 7920 c-3 -6 -3 -19 0 -31 5 -15 12 -18 27 -13 13 4 24 1 29 -7
6 -10 9 -7 9 10 0 16 4 21 14 18 15 -6 30 16 19 27 -10 10 -91 7 -98 -4z"/>
<path d="M6130 7815 c-16 -19 -5 -47 17 -43 23 4 31 58 10 58 -8 0 -20 -7 -27
-15z"/>
<path d="M6270 7660 c-11 -7 -12 -12 -3 -21 15 -15 43 -5 43 16 0 17 -18 19
-40 5z"/>
<path d="M4020 7506 c-47 -20 -91 -36 -98 -36 -43 0 -127 -89 -105 -111 4 -4
51 -17 103 -28 211 -44 350 -87 350 -108 0 -10 -5 -11 -17 -5 -21 12 -73 -5
-73 -24 0 -18 29 -32 81 -40 78 -10 76 -16 -9 -29 -46 -7 -86 -15 -89 -18 -16
-16 16 -27 80 -27 78 0 114 -12 87 -30 -8 -5 -41 -10 -72 -10 -66 0 -84 -16
-39 -33 20 -7 30 -17 29 -27 -4 -16 -35 -18 -79 -6 -23 7 -28 4 -37 -22 -8
-24 -18 -31 -50 -37 -22 -3 -48 -13 -59 -20 -10 -8 -24 -15 -31 -15 -26 0
-104 -44 -119 -66 -31 -48 21 -92 95 -80 26 4 45 1 58 -9 10 -8 25 -15 32 -15
20 0 14 17 -8 23 -14 4 -20 14 -20 35 0 33 16 50 50 54 20 3 27 -4 37 -37 18
-54 57 -85 109 -85 56 0 69 -16 37 -46 -14 -13 -32 -24 -39 -24 -24 0 -15 -30
11 -40 21 -8 32 -6 54 11 27 20 29 20 64 3 36 -17 38 -17 89 5 29 13 60 27 68
32 19 11 46 24 85 39 17 6 61 39 98 73 l68 62 -16 32 c-9 18 -25 35 -35 38
-27 9 -25 29 5 49 14 9 25 26 25 37 0 12 12 27 30 37 29 17 30 19 27 87 -1 51
3 79 16 104 28 55 18 113 -13 76 -18 -22 -26 -19 -48 19 -12 20 -39 44 -64 57
-24 11 -54 31 -68 44 -41 36 -122 73 -172 78 -26 2 -71 17 -99 32 -44 22 -69
28 -148 32 -92 4 -99 3 -181 -31z m491 -662 c15 -18 5 -39 -28 -61 -18 -12
-23 -12 -37 2 -23 23 -20 50 7 63 31 15 43 14 58 -4z"/>
<path d="M4764 6909 c-10 -17 13 -36 27 -22 12 12 4 33 -11 33 -5 0 -12 -5
-16 -11z"/>
<path d="M6670 6832 c0 -12 23 -32 37 -32 7 0 13 9 13 20 0 15 -7 20 -25 20
-14 0 -25 -4 -25 -8z"/>
<path d="M5357 6593 c-25 -25 11 -44 43 -23 13 9 13 11 0 20 -18 11 -34 13
-43 3z"/>
<path d="M7017 6334 c-10 -11 -8 -44 2 -44 6 0 13 4 16 10 8 12 -9 43 -18 34z"/>
<path d="M5230 6170 c-12 -8 -9 -10 13 -10 16 0 26 4 22 10 -8 12 -16 12 -35
0z"/>
<path d="M5179 6095 c-30 -10 -55 -26 -71 -47 -40 -54 -41 -57 -14 -70 33 -14
33 -26 1 -34 -28 -7 -32 -25 -11 -43 10 -8 16 -9 21 -1 3 5 16 10 28 10 35 0
53 16 39 33 -7 7 -9 17 -5 20 10 11 63 8 86 -5 12 -6 59 -12 104 -13 45 0 85
-4 89 -8 10 -9 -33 -55 -71 -74 -22 -12 -46 -14 -103 -9 l-74 6 -45 -40 c-43
-38 -50 -40 -109 -40 -48 0 -76 7 -126 30 -34 16 -74 30 -88 30 -14 0 -31 4
-39 9 -20 13 -64 -11 -98 -54 -15 -19 -47 -42 -70 -51 -34 -13 -43 -22 -43
-40 0 -53 -82 -97 -175 -92 -112 5 -172 -40 -130 -96 8 -11 15 -33 15 -48 0
-23 -5 -30 -27 -34 -19 -4 -34 -17 -45 -40 -31 -61 -21 -98 37 -133 19 -11 35
-27 35 -36 0 -8 11 -20 24 -27 21 -9 32 -6 71 16 29 18 67 30 103 33 38 4 70
14 96 32 36 24 47 26 140 25 121 0 211 -12 249 -31 30 -15 98 -20 116 -9 15
10 254 -13 266 -25 7 -7 5 -13 -7 -20 -17 -9 -16 -12 6 -35 25 -28 58 -32 151
-19 46 6 53 5 84 -24 18 -16 46 -33 62 -36 39 -9 42 -18 19 -48 l-20 -25 33
-20 c54 -31 100 -36 129 -12 14 11 28 30 32 44 4 16 19 29 47 40 34 14 44 25
66 74 23 52 25 65 19 143 -8 120 -34 179 -78 179 -19 0 -24 15 -8 25 13 8 13
55 0 75 -8 12 -13 13 -30 3 -30 -20 -47 -16 -69 16 -16 21 -33 31 -64 36 -23
4 -77 27 -119 51 -42 24 -85 44 -95 44 -26 0 -61 27 -78 60 -20 39 -20 40 19
40 37 0 96 18 96 30 0 4 18 20 41 34 38 26 41 30 35 64 -3 20 -7 46 -8 56 -2
11 -9 21 -17 24 -10 3 -12 -1 -8 -17 4 -17 -3 -27 -33 -47 -41 -28 -61 -26
-53 4 7 27 -76 97 -130 110 -80 20 -150 22 -198 7z m-281 -601 c28 -12 62 -15
137 -12 86 3 100 1 103 -13 7 -37 -139 -91 -202 -75 -15 4 -39 18 -53 32 -32
32 -62 43 -96 37 -15 -3 -39 -2 -53 1 -37 10 -18 27 38 37 69 11 87 10 126 -7z
m-221 -51 c7 -19 -58 -53 -99 -53 -47 0 -49 17 -5 47 34 24 97 27 104 6z"/>
<path d="M4713 6076 c-28 -13 -63 -59 -63 -84 0 -17 24 -20 110 -12 130 12
170 40 120 85 -27 25 -123 31 -167 11z"/>
<path d="M7064 5672 c-6 -4 -13 -15 -17 -25 -4 -10 -11 -16 -16 -12 -10 5 -61
-72 -61 -92 0 -6 11 -13 25 -15 32 -6 51 15 60 67 4 22 12 45 17 52 13 16 6
35 -8 25z"/>
<path d="M4226 5491 c-4 -7 -5 -15 -2 -18 9 -9 19 4 14 18 -4 11 -6 11 -12 0z"/>
<path d="M3720 5066 c0 -9 5 -16 10 -16 6 0 10 4 10 9 0 6 -4 13 -10 16 -5 3
-10 -1 -10 -9z"/>
<path d="M4813 5061 c-57 -7 -89 -30 -80 -55 8 -20 39 -32 135 -52 42 -9 89
-22 104 -30 31 -16 104 -19 113 -4 3 6 40 10 81 10 90 0 157 15 180 41 9 10
22 19 29 19 16 0 47 35 38 43 -11 12 -61 8 -66 -5 -3 -10 -13 -9 -41 5 -65 31
-342 46 -493 28z"/>
<path d="M4810 4610 c0 -5 5 -10 10 -10 6 0 10 5 10 10 0 6 -4 10 -10 10 -5 0
-10 -4 -10 -10z"/>
<path d="M4689 4586 c-10 -22 -9 -29 6 -46 40 -44 84 -10 48 38 -27 36 -41 38
-54 8z"/>
<path d="M6563 4455 c0 -27 2 -38 4 -22 2 15 2 37 0 50 -2 12 -4 0 -4 -28z"/>
<path d="M6484 4324 c10 -74 26 -76 29 -3 2 35 -1 44 -17 47 -17 4 -18 0 -12
-44z"/>
<path d="M6556 4287 c-3 -17 -8 -63 -12 -100 -4 -38 -13 -75 -20 -82 -8 -7
-14 -23 -14 -35 0 -11 -11 -31 -24 -43 -13 -13 -28 -40 -31 -61 -4 -21 -21
-54 -38 -73 -25 -28 -31 -44 -30 -75 1 -23 -8 -61 -22 -91 -12 -29 -31 -77
-41 -107 -10 -30 -26 -64 -36 -76 -10 -11 -25 -47 -34 -80 -8 -32 -26 -75 -39
-95 -13 -20 -27 -52 -30 -72 -5 -24 -15 -38 -32 -46 -15 -7 -23 -17 -20 -25 6
-16 -25 -106 -53 -151 -10 -16 -26 -55 -35 -87 -9 -31 -22 -62 -30 -68 -10 -8
-15 -31 -15 -63 0 -39 -6 -60 -26 -89 -19 -27 -25 -44 -20 -63 9 -36 36 -32
87 15 24 22 47 40 51 40 3 0 11 14 17 31 6 17 24 45 41 62 16 18 41 44 55 58
14 15 25 34 25 44 0 10 15 23 40 32 22 9 40 20 40 24 0 5 15 16 33 25 51 27
105 74 116 103 6 14 15 33 20 41 5 8 18 35 29 60 72 166 93 202 109 186 4 -4
1 -16 -6 -28 -11 -17 -10 -23 3 -36 14 -14 19 -14 49 0 48 23 162 13 182 -15
13 -19 12 -23 -7 -44 -19 -20 -20 -27 -10 -44 10 -16 9 -25 -3 -49 -33 -63 -8
-102 51 -81 31 11 38 11 54 -4 12 -11 20 -13 25 -6 3 6 15 11 26 11 14 0 19
-7 19 -29 0 -36 -19 -50 -35 -28 -7 10 -17 17 -22 17 -16 0 -53 -45 -53 -66 0
-23 32 -79 67 -116 l26 -27 25 19 c13 11 34 20 46 20 31 0 48 14 40 33 -5 14
-1 16 27 11 43 -9 71 -32 67 -58 -2 -17 -10 -21 -38 -21 -20 0 -48 -8 -63 -18
-15 -10 -38 -22 -52 -27 -14 -5 -25 -13 -25 -17 0 -15 19 -37 26 -31 10 11 66
-21 61 -35 -2 -7 -20 -13 -39 -15 -29 -2 -38 1 -43 16 -3 11 -16 23 -28 26
-23 6 -84 92 -132 186 -56 112 -63 126 -69 156 -7 30 -52 81 -90 101 -14 8
-29 7 -53 -4 -19 -8 -43 -13 -52 -11 -27 5 -83 -51 -114 -112 -34 -69 -70
-110 -105 -119 -23 -6 -27 -13 -30 -50 -3 -34 -8 -44 -29 -54 -16 -7 -35 -31
-49 -61 -21 -47 -22 -52 -7 -68 15 -17 14 -18 -14 -18 -19 0 -33 6 -37 16 -5
13 -10 13 -36 -6 -18 -13 -27 -26 -23 -36 4 -11 8 -12 20 -2 17 14 33 -4 33
-39 0 -31 -16 -37 -33 -13 -14 20 -15 20 -27 -9 -10 -25 -9 -34 4 -53 24 -34
20 -45 -24 -74 -22 -15 -40 -33 -40 -42 0 -27 -54 -101 -83 -113 -16 -7 -42
-29 -59 -51 -42 -51 -113 -96 -168 -103 -25 -4 -57 -16 -72 -26 -15 -10 -36
-19 -46 -19 -11 0 -25 -7 -32 -15 -7 -8 -19 -15 -27 -15 -16 0 -160 -67 -183
-86 -8 -6 -40 -24 -70 -40 -48 -24 -108 -77 -110 -95 0 -11 86 -32 127 -30 24
1 68 13 100 27 l58 26 -33 13 c-26 12 -32 20 -32 45 0 18 6 33 15 36 28 11 65
-6 76 -34 6 -15 15 -35 20 -44 14 -27 11 -46 -10 -60 -10 -7 -20 -26 -23 -43
-3 -16 -7 -37 -9 -45 -7 -27 37 -22 73 8 18 16 44 35 56 41 16 9 22 19 19 31
-8 30 19 57 64 64 23 4 58 19 78 35 20 16 50 36 68 45 26 13 32 23 35 53 3 37
5 38 43 41 67 4 84 11 99 41 9 16 24 31 36 34 11 3 25 18 30 34 11 31 59 63
94 63 12 0 37 15 55 34 18 19 46 37 62 40 16 3 40 17 53 31 25 27 58 37 37 11
-9 -11 -9 -20 -2 -34 17 -31 -16 -85 -58 -93 -41 -9 -51 -22 -51 -76 0 -23 -5
-43 -11 -45 -6 -2 -9 -13 -6 -23 5 -19 5 -19 12 3 8 26 30 29 39 6 12 -32 5
-64 -20 -91 -25 -26 -26 -32 -19 -97 5 -54 4 -67 -7 -64 -7 3 -14 13 -16 24
-7 44 -13 50 -28 30 -19 -27 -18 -62 3 -71 16 -6 15 -8 -6 -25 -24 -17 -24
-19 -8 -44 23 -35 58 -33 102 5 41 36 43 45 14 68 -18 14 -21 24 -15 54 4 20
11 39 16 42 16 10 47 -34 42 -60 -3 -19 0 -25 13 -25 26 0 66 48 72 87 4 24
14 38 35 49 16 8 34 26 40 39 6 13 20 26 32 29 33 8 71 134 61 203 -8 54 7 83
43 83 16 0 33 -5 39 -11 8 -8 14 -6 22 9 6 10 7 22 4 26 -13 13 34 5 74 -13
23 -11 51 -17 62 -14 15 4 21 1 21 -11 0 -11 18 -25 45 -37 44 -19 45 -21 45
-64 0 -41 -2 -45 -25 -45 -15 0 -25 -6 -25 -14 0 -21 22 -26 41 -9 14 12 17
12 22 -1 4 -10 -2 -20 -13 -26 -24 -13 -26 -33 -5 -50 13 -11 20 -9 44 14 54
52 105 23 87 -48 -7 -29 -46 -47 -70 -34 -31 17 -40 -4 -26 -61 7 -28 16 -48
21 -45 5 3 9 11 9 18 0 18 50 40 63 27 7 -7 21 2 44 26 24 27 33 46 33 72 0
44 16 73 28 53 7 -10 15 -9 40 5 36 20 40 37 15 52 -17 9 -16 11 5 33 28 31
28 44 -3 64 -20 13 -31 15 -49 6 -20 -9 -27 -7 -40 7 -20 22 -21 55 -1 71 21
17 65 -2 72 -31 5 -17 11 -20 36 -15 33 7 57 -7 57 -32 0 -9 17 -33 37 -54 29
-30 34 -41 25 -50 -17 -17 -15 -32 10 -64 13 -15 21 -38 20 -52 -4 -30 14 -52
43 -52 42 0 55 -11 55 -46 0 -19 -6 -37 -15 -42 -13 -7 -14 -14 -5 -36 5 -15
10 -36 10 -47 0 -11 12 -30 27 -43 l27 -24 33 25 c32 24 34 25 59 9 20 -14 24
-24 22 -48 -2 -26 -9 -33 -38 -43 -48 -16 -52 -48 -10 -70 30 -16 32 -19 26
-59 -7 -45 1 -62 62 -128 l25 -28 36 22 c20 12 38 23 40 24 2 2 -6 15 -18 30
-11 15 -21 35 -21 44 0 10 -9 20 -20 23 -15 4 -20 14 -20 39 0 26 6 36 30 50
20 11 30 25 30 41 0 13 8 32 19 43 17 19 17 22 1 64 -9 24 -22 46 -29 48 -14
5 -15 39 0 47 5 4 19 -1 29 -10 18 -16 20 -15 44 22 14 21 33 48 42 60 21 30
10 63 -22 63 -14 0 -27 -7 -30 -15 -11 -27 -22 -6 -29 50 -6 41 -13 58 -28 67
-20 10 -20 11 3 28 31 23 21 50 -20 50 -53 0 -65 75 -20 120 27 27 25 31 -10
24 -25 -6 -30 -3 -35 19 -10 37 -35 42 -59 12 -19 -24 -23 -25 -41 -11 -19 14
-19 15 18 52 43 44 46 65 12 119 -17 29 -24 55 -25 92 0 57 -14 73 -72 87 -23
5 -28 12 -28 36 0 23 7 33 30 45 57 30 57 72 0 90 -14 4 -19 12 -16 23 3 10
-5 39 -19 66 -19 37 -22 52 -14 63 15 18 46 17 57 -3 7 -13 11 -13 32 4 27 22
22 52 -8 52 -29 0 -55 35 -48 63 3 14 12 27 20 30 20 8 66 -30 66 -55 0 -31
25 -15 28 18 3 26 -2 33 -35 49 -21 10 -49 23 -63 30 -14 7 -41 15 -60 19 -67
12 -175 49 -205 70 -16 12 -63 51 -103 88 -135 124 -307 229 -398 243 -38 5
-44 10 -44 30 0 15 -11 32 -30 45 -32 23 -39 47 -15 56 21 8 19 22 -14 100
-16 38 -37 98 -47 134 -9 36 -35 101 -56 144 -21 44 -38 87 -38 97 0 32 -18
30 -24 -4z m259 -673 c10 -10 14 -25 11 -38 -3 -12 -6 -27 -6 -33 0 -8 -14
-13 -37 -13 -21 0 -55 -11 -80 -26 -42 -24 -46 -25 -69 -10 -24 17 -29 32 -18
60 7 17 34 21 50 7 5 -5 19 -12 32 -16 18 -5 22 -3 22 16 0 27 37 69 61 69 10
0 25 -7 34 -16z m-75 -209 c-15 -18 -39 -19 -62 -1 -29 22 -21 35 25 38 45 3
59 -11 37 -37z m685 -124 c3 -5 0 -13 -5 -16 -15 -9 -60 3 -60 15 0 13 57 13
65 1z m45 -85 c0 -13 -20 -26 -41 -26 -5 0 -9 9 -9 20 0 15 7 20 25 20 15 0
25 -6 25 -14z m-410 -82 c0 -14 -4 -23 -10 -19 -5 3 -10 15 -10 26 0 10 5 19
10 19 6 0 10 -12 10 -26z m-658 -396 c-20 -20 -14 -55 15 -76 33 -24 26 -48
-16 -54 -38 -6 -43 0 -69 78 l-20 62 26 26 27 26 24 -25 c20 -19 23 -27 13
-37z m705 -18 c4 -14 14 -20 32 -20 15 0 34 9 44 20 22 26 57 27 57 0 0 -10 6
-23 13 -27 16 -10 28 -39 20 -47 -4 -3 -14 1 -24 10 -21 19 -49 12 -49 -11 0
-12 -8 -15 -32 -13 -26 2 -36 10 -47 36 -8 18 -22 32 -32 32 -19 0 -42 24 -32
33 14 14 45 6 50 -13z m163 -124 c28 -2 73 -39 94 -81 22 -43 9 -49 -30 -15
-19 16 -39 30 -45 30 -18 0 -79 52 -79 67 0 11 5 13 18 7 9 -4 28 -8 42 -8z
m-440 -100 c0 -8 -4 -17 -9 -21 -12 -7 -24 12 -16 25 9 15 25 12 25 -4z m713
-178 c10 -31 -13 -47 -42 -29 -12 8 -12 12 -2 25 16 19 38 21 44 4z m-1098
-69 c0 -34 -1 -34 -44 -34 -24 0 -46 5 -48 10 -1 6 6 24 16 42 17 28 23 31 48
24 24 -6 28 -13 28 -42z m1240 -55 c0 -22 -32 -31 -49 -14 -8 8 -6 15 9 26 24
18 40 13 40 -12z m-1125 -41 c0 -10 -9 -13 -27 -11 -31 4 -42 25 -16 30 26 6
43 -2 43 -19z m-833 -47 c-10 -25 -37 -19 -37 7 0 13 3 27 7 31 11 11 36 -21
30 -38z m2081 -12 c30 -21 28 -58 -5 -79 -48 -32 -89 22 -52 69 24 30 27 31
57 10z m-2188 -39 c0 -8 -4 -15 -10 -15 -5 0 -10 7 -10 15 0 8 5 15 10 15 6 0
10 -7 10 -15z m2170 -131 c0 -8 -4 -14 -10 -14 -5 0 -10 9 -10 21 0 11 5 17
10 14 6 -3 10 -13 10 -21z m48 -112 c3 -27 0 -32 -17 -32 -16 0 -21 6 -21 28
0 53 33 56 38 4z"/>
<path d="M3888 4114 c-61 -93 -198 -337 -198 -352 0 -4 -9 -18 -20 -32 -14
-18 -20 -41 -20 -78 0 -29 -5 -63 -11 -74 -9 -17 -8 -24 6 -34 10 -7 23 -15
29 -17 8 -3 6 -13 -4 -32 -20 -37 -19 -139 2 -162 9 -10 19 -28 22 -40 5 -16
15 -23 31 -23 13 0 32 -8 42 -17 10 -10 34 -26 54 -36 21 -11 46 -35 58 -58
22 -39 22 -39 2 -39 -27 0 -99 28 -135 53 -28 20 -29 20 -42 2 -8 -10 -14 -36
-14 -58 0 -21 -6 -51 -14 -65 -35 -70 -48 -136 -43 -237 7 -157 21 -201 59
-189 15 4 27 -3 47 -27 26 -31 30 -32 102 -32 41 0 85 1 99 2 45 6 137 -17
180 -44 84 -53 150 -37 101 25 -35 43 -50 75 -55 119 -3 24 -15 59 -26 78 -31
53 -22 63 54 60 52 -2 70 2 93 19 36 27 36 45 -2 57 -16 5 -39 18 -51 28 -27
25 -72 24 -100 -2 -26 -24 -57 -19 -52 8 2 12 15 20 37 23 42 6 50 24 19 41
-13 6 -27 18 -31 25 -4 8 -18 14 -30 14 -29 0 -51 15 -43 29 11 17 41 13 69
-9 14 -11 31 -20 39 -20 7 0 27 -9 43 -20 17 -11 44 -20 61 -20 20 0 52 -13
83 -34 62 -42 72 -46 94 -34 16 8 15 11 -9 43 -14 19 -34 37 -44 40 -11 3 -20
19 -23 42 -4 20 -22 68 -41 107 -18 39 -55 114 -80 166 -25 52 -46 101 -46
108 0 7 -23 61 -51 120 -60 124 -106 287 -115 405 -8 115 -32 239 -48 256 -12
11 -24 -1 -78 -85z m132 -1124 l20 -29 -20 -6 c-15 -5 -28 2 -50 25 -17 18
-28 35 -25 40 9 15 56 -3 75 -30z"/>
<path d="M3295 3489 c-66 -45 -75 -55 -75 -83 0 -13 5 -16 18 -11 42 17 88 17
106 0 22 -23 13 -52 -29 -90 -27 -25 -32 -36 -28 -58 3 -15 15 -33 26 -39 17
-9 23 -8 32 8 20 37 86 94 108 94 19 0 87 57 87 74 0 3 -13 12 -30 21 -42 22
-42 69 0 93 16 9 30 20 30 25 0 4 -42 7 -92 7 -92 -1 -94 -1 -153 -41z"/>
<path d="M6597 3294 c-13 -13 -7 -24 14 -24 11 0 19 5 17 12 -5 14 -22 21 -31
12z"/>
<path d="M6730 3283 c0 -5 11 -21 24 -38 20 -24 28 -28 42 -19 30 18 28 34 -5
40 -17 4 -31 10 -31 15 0 5 -7 9 -15 9 -8 0 -15 -3 -15 -7z"/>
<path d="M3472 3214 c-23 -37 -31 -61 -27 -75 18 -54 74 21 65 87 l-5 42 -33
-54z"/>
<path d="M6560 3240 c0 -5 5 -10 10 -10 6 0 10 5 10 10 0 6 -4 10 -10 10 -5 0
-10 -4 -10 -10z"/>
<path d="M3235 3200 c3 -5 8 -10 11 -10 2 0 4 5 4 10 0 6 -5 10 -11 10 -5 0
-7 -4 -4 -10z"/>
<path d="M3344 3176 c-3 -8 0 -24 6 -36 15 -28 73 -25 79 4 6 36 -72 66 -85
32z"/>
<path d="M7857 3114 c-12 -12 4 -24 30 -24 21 0 24 2 13 15 -13 16 -32 20 -43
9z"/>
<path d="M3427 3079 c-10 -6 -30 -8 -44 -4 -24 6 -42 -6 -43 -27 0 -16 60 -39
78 -29 11 6 24 6 35 -1 30 -16 47 6 34 42 -12 31 -29 37 -60 19z"/>
<path d="M7930 3055 c0 -20 -6 -27 -31 -32 -21 -4 -34 -14 -40 -32 -9 -22 -6
-28 18 -46 57 -41 86 -72 79 -83 -11 -19 -36 -14 -68 13 -39 33 -51 32 -71
-10 -23 -48 -22 -55 12 -55 33 0 151 -67 151 -86 0 -22 -66 -29 -95 -10 -14 9
-25 20 -25 25 0 5 -11 12 -25 15 -14 4 -25 11 -25 17 0 8 -5 7 -15 -1 -8 -7
-15 -21 -15 -31 0 -10 -12 -25 -27 -33 l-27 -14 39 -17 c22 -10 54 -17 72 -16
24 2 36 -4 48 -22 20 -32 12 -50 -32 -71 -29 -14 -34 -20 -28 -39 4 -12 8 -35
9 -51 1 -20 8 -31 24 -37 14 -5 22 -17 22 -32 0 -24 67 -167 94 -202 39 -49
74 -113 80 -146 4 -21 13 -42 21 -49 8 -6 19 -27 25 -46 6 -19 16 -34 20 -34
13 0 99 -174 117 -235 11 -36 29 -63 65 -98 46 -44 52 -47 67 -33 39 36 111 7
111 -44 0 -36 -23 -50 -79 -50 -33 0 -41 -4 -41 -18 0 -10 6 -27 14 -38 8 -10
12 -29 9 -41 -3 -14 4 -34 21 -56 14 -18 29 -49 32 -68 4 -19 15 -45 26 -58
10 -13 18 -33 18 -45 0 -31 27 -114 49 -150 10 -17 22 -46 26 -64 4 -22 16
-37 32 -45 13 -6 31 -22 38 -36 l14 -26 1 26 c0 15 -7 32 -15 39 -9 7 -15 29
-15 54 0 23 -7 51 -15 62 -9 13 -16 55 -18 110 -4 71 -8 91 -22 99 -76 44 -95
90 -49 120 24 15 24 18 10 34 -20 22 -20 39 0 108 14 46 14 61 3 99 -12 41
-16 44 -47 44 -18 0 -43 5 -54 11 -17 9 -23 8 -30 -5 -5 -9 -22 -16 -38 -16
-26 0 -30 4 -30 28 0 18 -9 37 -25 50 -30 26 -33 67 -7 120 10 20 17 45 15 54
-2 9 1 34 6 55 9 32 19 43 56 62 30 15 45 29 45 42 0 25 -25 24 -57 -1 -19
-15 -30 -17 -44 -9 -20 10 -25 29 -10 44 5 6 12 20 16 32 5 18 1 25 -19 35
-38 17 -33 38 9 38 32 0 35 -2 35 -30 0 -16 4 -30 9 -30 8 0 59 97 75 143 3
11 15 21 26 24 24 6 24 12 5 37 -24 32 -18 63 20 97 24 22 35 41 35 61 0 33
-29 40 -37 8 -7 -25 -40 -26 -48 -1 -3 11 -19 24 -35 30 -17 5 -30 14 -30 19
0 5 -20 7 -45 4 -39 -4 -50 -1 -71 19 -21 19 -36 24 -82 24 l-57 0 0 35 0 35
72 5 c79 6 92 12 73 35 -18 22 12 46 60 49 22 1 25 35 4 43 -10 4 -19 2 -22
-5 -2 -7 -21 -12 -42 -12 -21 0 -43 -6 -50 -15 -18 -22 -47 -18 -61 7 -10 18
-8 24 11 40 18 15 33 18 61 13 32 -6 38 -3 44 14 7 24 -16 63 -49 80 -21 12
-26 11 -45 -8 -31 -31 -54 -17 -48 30 5 36 2 40 -57 91 -51 45 -103 78 -121
78 -3 0 -5 -11 -5 -25z m298 -551 c13 -4 22 -14 22 -25 0 -11 5 -28 11 -38 19
-29 3 -67 -35 -85 -25 -12 -36 -25 -41 -47 -7 -29 -8 -30 -23 -15 -13 13 -14
20 -5 35 8 12 9 30 4 48 -4 15 -7 48 -6 72 1 34 6 46 21 52 25 10 25 10 52 3z
m-270 -59 c-3 -3 -13 -2 -22 1 -14 5 -15 9 -4 15 13 8 36 -6 26 -16z m438 -15
c19 0 18 -39 -1 -46 -20 -8 -45 13 -45 38 0 14 5 18 16 14 9 -3 22 -6 30 -6z
m-363 -112 c5 -18 -3 -48 -14 -48 -13 0 -22 27 -15 45 7 18 23 20 29 3z m321
-20 c15 -42 -3 -82 -38 -86 -31 -4 -66 21 -66 48 0 10 10 29 21 44 28 36 70
33 83 -6z m46 -10 c0 -16 -3 -19 -11 -11 -6 6 -8 16 -5 22 11 17 16 13 16 -11z
m-247 -133 c8 -20 -22 -53 -55 -61 -24 -5 -28 -3 -28 17 0 46 69 83 83 44z
m83 -66 c10 -17 -13 -36 -27 -22 -12 12 -4 33 11 33 5 0 12 -5 16 -11z m24
-108 c25 -47 -6 -78 -66 -66 -25 4 -34 11 -34 25 0 49 78 81 100 41z"/>
<path d="M7680 3010 c-13 -8 -13 -11 2 -26 19 -19 38 -11 38 17 0 21 -16 24
-40 9z"/>
<path d="M7595 3000 c-3 -5 -1 -10 4 -10 6 0 11 5 11 10 0 6 -2 10 -4 10 -3 0
-8 -4 -11 -10z"/>
<path d="M7810 2994 c0 -8 5 -12 10 -9 6 3 10 10 10 16 0 5 -4 9 -10 9 -5 0
-10 -7 -10 -16z"/>
<path d="M7659 2929 c-8 -15 -8 -24 0 -32 16 -16 61 8 61 33 0 28 -45 27 -61
-1z"/>
<path d="M4405 2807 c-22 -39 -25 -54 -24 -138 0 -55 7 -121 18 -159 14 -54
22 -67 46 -79 25 -12 35 -12 69 0 39 13 41 17 50 67 7 42 5 65 -9 113 -10 33
-25 64 -34 69 -13 7 -13 10 -1 25 13 15 11 20 -13 39 -33 26 -33 33 -6 62 28
29 17 44 -31 44 -36 0 -41 -4 -65 -43z"/>
<path d="M2076 2818 c-11 -15 -12 -26 -5 -40 11 -21 14 -21 40 -8 27 15 27 70
0 70 -11 0 -27 -10 -35 -22z"/>
<path d="M7684 2785 c-8 -33 -2 -39 31 -31 30 8 44 34 24 47 -26 16 -48 10
-55 -16z"/>
<path d="M8462 2663 c33 -68 43 -77 54 -49 8 22 -14 56 -37 56 -11 0 -19 -3
-17 -7z"/>
<path d="M5913 2643 c-7 -2 -13 -18 -13 -34 0 -21 5 -29 18 -29 23 0 66 45 57
59 -6 11 -40 13 -62 4z"/>
<path d="M8370 2591 c0 -15 6 -21 21 -21 14 0 19 5 17 17 -5 26 -38 29 -38 4z"/>
<path d="M2788 2553 c-10 -2 -18 -11 -18 -19 0 -12 5 -12 33 2 17 9 34 18 36
20 6 5 -29 3 -51 -3z"/>
<path d="M8572 2533 c-19 -7 -4 -23 24 -23 27 0 32 15 8 24 -9 3 -16 6 -17 5
-1 0 -8 -3 -15 -6z"/>
<path d="M3705 2480 c3 -5 8 -10 11 -10 2 0 4 5 4 10 0 6 -5 10 -11 10 -5 0
-7 -4 -4 -10z"/>
<path d="M2051 2464 c0 -11 3 -14 6 -6 3 7 2 16 -1 19 -3 4 -6 -2 -5 -13z"/>
<path d="M2737 2469 c-24 -14 -5 -39 29 -39 28 0 34 34 8 44 -19 7 -15 8 -37
-5z"/>
<path d="M2750 2388 l-25 -10 22 -10 c27 -13 53 -4 53 17 0 17 -14 18 -50 3z"/>
<path d="M3670 2386 c0 -17 14 -29 23 -20 8 8 -3 34 -14 34 -5 0 -9 -6 -9 -14z"/>
<path d="M4487 2394 c-8 -8 1 -24 14 -24 5 0 9 7 9 15 0 15 -12 20 -23 9z"/>
<path d="M1642 2368 c-20 -20 -14 -30 15 -26 32 4 46 38 16 38 -11 0 -24 -5
-31 -12z"/>
<path d="M8600 2361 c0 -15 6 -21 21 -21 14 0 19 5 17 17 -5 26 -38 29 -38 4z"/>
<path d="M2010 2355 c-13 -16 -6 -35 15 -35 8 0 21 -12 29 -27 l14 -28 11 27
c21 57 -33 107 -69 63z"/>
<path d="M9010 2305 c0 -9 6 -12 15 -9 8 4 12 10 9 15 -8 14 -24 10 -24 -6z"/>
<path d="M8538 2287 c-32 -12 -33 -16 -15 -42 11 -14 21 -16 50 -11 45 8 50
17 31 44 -17 24 -25 25 -66 9z"/>
<path d="M6697 2283 c-11 -10 -8 -53 3 -53 9 0 30 40 30 56 0 7 -26 5 -33 -3z"/>
<path d="M1952 2228 c-7 -7 -12 -24 -12 -39 0 -19 -6 -30 -21 -34 -21 -7 -22
-26 0 -33 7 -2 15 5 18 16 3 12 16 22 33 26 32 6 48 39 30 61 -15 18 -32 19
-48 3z"/>
<path d="M7900 2176 c0 -8 5 -18 10 -21 6 -3 10 3 10 14 0 12 -4 21 -10 21 -5
0 -10 -6 -10 -14z"/>
<path d="M8900 2168 c0 -7 4 -19 9 -27 11 -17 25 3 17 24 -7 18 -26 20 -26 3z"/>
<path d="M2670 2146 c0 -18 39 -31 52 -18 15 15 0 32 -28 32 -14 0 -24 -6 -24
-14z"/>
<path d="M7316 2125 c-11 -8 -28 -15 -37 -15 -16 0 -49 -35 -49 -52 0 -9 30
-38 40 -38 5 0 10 15 12 33 2 24 8 33 25 35 24 4 63 52 41 52 -7 0 -22 -7 -32
-15z"/>
<path d="M8520 2070 c0 -5 5 -10 10 -10 6 0 10 5 10 10 0 6 -4 10 -10 10 -5 0
-10 -4 -10 -10z"/>
<path d="M8647 2066 c-16 -12 -24 -46 -11 -46 15 0 44 22 44 35 0 21 -13 25
-33 11z"/>
<path d="M2662 2042 c-9 -6 -10 -16 -1 -40 13 -38 26 -41 41 -7 8 19 8 28 -2
40 -14 17 -20 18 -38 7z"/>
<path d="M7137 1954 c-4 -4 -7 -22 -7 -41 0 -61 60 -94 102 -56 15 14 23 15
38 5 16 -10 21 -7 33 18 13 26 13 30 -2 44 -26 23 -50 19 -61 -10 -13 -33 -38
-28 -60 10 -17 31 -32 41 -43 30z"/>
<path d="M4887 1943 c-11 -10 -8 -51 4 -59 6 -4 27 -41 46 -82 19 -41 45 -88
58 -104 14 -16 25 -36 25 -44 0 -21 30 -77 46 -87 10 -6 14 -32 14 -95 0 -58
5 -97 15 -116 8 -15 15 -46 15 -67 0 -21 9 -60 19 -87 13 -32 23 -96 30 -193
6 -79 15 -160 21 -179 6 -19 7 -61 4 -92 -5 -39 -3 -58 4 -58 20 0 33 37 22
65 -7 19 -6 37 6 68 8 23 17 84 20 136 3 79 1 96 -13 106 -13 10 -15 22 -8 71
13 94 11 130 -8 148 -11 12 -17 34 -17 67 0 28 -7 63 -15 80 -12 21 -13 34 -5
48 5 11 10 31 10 45 0 16 12 34 35 53 l35 29 -30 22 c-16 12 -37 22 -47 22
-43 1 -48 15 -24 71 13 29 34 61 47 72 30 23 30 40 2 77 -31 42 -70 38 -125
-13 l-23 -20 -24 26 c-14 15 -30 27 -35 27 -6 0 -25 16 -42 35 -31 34 -49 42
-62 28z"/>
<path d="M8417 1913 c-12 -11 -8 -23 8 -23 8 0 15 7 15 15 0 16 -12 20 -23 8z"/>
<path d="M2644 1875 c-9 -22 1 -29 15 -11 8 10 9 16 1 21 -5 3 -13 -1 -16 -10z"/>
<path d="M9547 1824 c-14 -15 -6 -34 14 -34 14 0 19 5 17 17 -3 18 -20 27 -31
17z"/>
<path d="M7240 1813 c-14 -4 -80 -121 -80 -143 0 -5 18 -10 40 -10 45 0 52 18
23 59 -15 23 -15 25 2 37 10 8 24 14 31 14 6 0 17 6 23 14 10 12 9 16 -6 24
-10 4 -25 7 -33 5z"/>
<path d="M7943 1806 c-21 -12 -21 -12 7 -23 31 -12 52 -1 43 23 -6 17 -20 16
-50 0z"/>
<path d="M7990 1723 c0 -16 6 -38 14 -49 13 -17 15 -18 21 -2 8 21 -7 70 -23
76 -7 2 -12 -7 -12 -25z"/>
<path d="M9450 1697 c0 -28 -6 -40 -29 -56 -21 -15 -30 -32 -35 -65 -4 -24
-13 -52 -21 -62 -8 -11 -15 -22 -15 -26 0 -3 23 -25 50 -48 42 -35 53 -40 65
-30 8 7 15 27 15 44 0 17 7 51 16 76 9 25 13 58 10 73 -5 24 0 35 29 64 19 19
35 39 35 44 0 6 -17 9 -37 9 -21 -1 -48 2 -60 5 -21 7 -23 4 -23 -28z"/>
<path d="M6225 1690 c-20 -21 -26 -33 -18 -41 12 -12 73 35 73 57 0 23 -24 16
-55 -16z"/>
<path d="M8906 1705 c-9 -25 -8 -27 17 -23 12 2 22 10 22 18 0 21 -31 24 -39
5z"/>
<path d="M5353 1703 c-28 -4 -34 -9 -43 -44 -17 -64 18 -92 40 -33 8 19 17 24
45 24 30 0 35 3 35 24 0 21 -20 39 -38 34 -4 0 -22 -3 -39 -5z"/>
<path d="M7274 1669 c-3 -6 -1 -16 5 -22 9 -9 14 -8 21 3 9 15 4 30 -10 30 -5
0 -12 -5 -16 -11z"/>
<path d="M8345 1671 c-6 -11 9 -23 19 -14 9 9 7 23 -3 23 -6 0 -12 -4 -16 -9z"/>
<path d="M8480 1661 c0 -15 6 -21 21 -21 14 0 19 5 17 17 -5 26 -38 29 -38 4z"/>
<path d="M4652 1518 c-7 -7 -12 -29 -12 -50 0 -30 4 -38 18 -38 19 0 62 39 62
57 0 12 -33 43 -46 43 -6 0 -15 -5 -22 -12z"/>
<path d="M7170 1501 c0 -10 7 -24 15 -31 12 -10 16 -9 21 4 3 9 4 23 0 31 -8
21 -36 19 -36 -4z"/>
<path d="M4944 1446 c-9 -38 2 -62 21 -46 19 16 19 44 0 60 -12 10 -15 7 -21
-14z"/>
<path d="M8845 1450 c3 -5 8 -10 11 -10 2 0 4 5 4 10 0 6 -5 10 -11 10 -5 0
-7 -4 -4 -10z"/>
<path d="M4592 1378 c-11 -18 -23 -50 -26 -70 -4 -21 -16 -57 -26 -80 -23 -51
-26 -98 -6 -98 8 0 19 14 25 32 6 17 22 46 36 64 21 27 43 115 45 177 0 19
-31 3 -48 -25z"/>
<path d="M7830 1390 c0 -5 9 -10 20 -10 11 0 20 5 20 10 0 6 -9 10 -20 10 -11
0 -20 -4 -20 -10z"/>
<path d="M9360 1359 c-20 -7 -28 -20 -38 -61 -6 -28 -21 -61 -32 -73 -11 -12
-20 -26 -20 -33 0 -21 -23 -62 -35 -62 -15 0 -25 -32 -25 -82 0 -53 31 -52 64
1 14 22 41 52 61 66 38 29 43 49 20 79 -8 11 -15 24 -15 28 0 8 61 39 105 53
20 7 19 7 -2 22 -18 12 -21 19 -12 34 19 36 -14 49 -71 28z"/>
<path d="M9800 1100 c0 -5 5 -10 10 -10 6 0 10 5 10 10 0 6 -4 10 -10 10 -5 0
-10 -4 -10 -10z"/>
<path d="M4505 1090 c-3 -5 -1 -10 4 -10 6 0 11 5 11 10 0 6 -2 10 -4 10 -3 0
-8 -4 -11 -10z"/>
<path d="M7905 1081 c-7 -12 12 -24 25 -16 11 7 4 25 -10 25 -5 0 -11 -4 -15
-9z"/>
<path d="M9806 1073 c-3 -3 -6 -23 -6 -43 0 -22 -8 -48 -21 -63 -11 -15 -27
-47 -36 -73 -14 -42 -46 -103 -75 -145 -14 -21 -3 -50 16 -43 8 3 19 18 25 34
5 16 19 33 30 40 12 6 21 18 21 27 0 9 7 24 15 33 21 23 87 191 81 206 -6 16
-41 35 -50 27z"/>
<path d="M4678 997 c-31 -26 -48 -57 -48 -89 0 -13 -9 -36 -20 -53 -11 -16
-20 -42 -20 -58 0 -15 -5 -36 -12 -46 -13 -21 -4 -55 13 -49 7 2 24 36 38 74
14 39 33 81 42 95 17 26 49 114 49 136 0 19 -11 16 -42 -10z"/>
<path d="M4455 900 c-4 -22 -11 -42 -16 -46 -13 -7 -11 -61 2 -70 22 -13 40
23 44 89 4 53 2 67 -9 67 -9 0 -17 -16 -21 -40z"/>
<path d="M9126 884 c-11 -28 -6 -65 9 -70 28 -11 62 5 68 31 3 21 -1 29 -24
40 -36 19 -45 19 -53 -1z"/>
<path d="M9101 781 c-11 -11 -27 -34 -36 -50 -14 -29 -14 -34 4 -69 l19 -38
-34 -31 c-35 -31 -44 -53 -21 -53 31 0 71 71 82 144 4 27 16 57 26 67 23 23
24 35 3 43 -22 8 -22 8 -43 -13z"/>
<path d="M4385 727 c-12 -19 -13 -30 -4 -55 19 -56 50 -47 69 19 16 56 -34 83
-65 36z"/>
<path d="M4810 486 c0 -39 50 -142 80 -165 17 -12 30 -32 32 -48 2 -17 10 -29
21 -31 20 -4 23 23 3 35 -7 4 -21 31 -30 59 -9 29 -31 65 -51 84 -19 19 -35
42 -35 51 0 10 -4 21 -10 24 -5 3 -10 -1 -10 -9z"/>
<path d="M9010 467 c0 -3 7 -22 16 -43 15 -34 18 -36 24 -19 9 26 -3 59 -24
63 -9 2 -16 1 -16 -1z"/>
<path d="M9150 374 c-6 -14 -10 -35 -10 -47 0 -13 -6 -31 -13 -42 -8 -11 -19
-35 -25 -52 -10 -29 -9 -33 6 -33 10 0 24 15 33 33 65 133 73 167 39 167 -13
0 -24 -10 -30 -26z"/>
<path d="M8938 308 c-3 -14 -1 -34 3 -46 6 -16 3 -24 -11 -32 -28 -15 -25 -30
5 -30 15 0 25 6 25 14 0 8 7 16 15 20 22 8 18 37 -9 69 l-23 29 -5 -24z"/>
<path d="M1090 268 c0 -16 5 -28 10 -28 13 0 13 20 0 40 -8 12 -10 9 -10 -12z"/>
</g>
</svg>
